<?xml version="1.0" encoding="UTF-8"?>
<!DOCTYPE svg PUBLIC "-//W3C//DTD SVG 1.1//EN" "http://www.w3.org/Graphics/SVG/1.1/DTD/svg11.dtd">
<!-- Creator: CorelDRAW X7 -->
<svg xmlns="http://www.w3.org/2000/svg" xml:space="preserve" width="300px" height="300px" version="1.1" style="shape-rendering:geometricPrecision; text-rendering:geometricPrecision; image-rendering:optimizeQuality; fill-rule:evenodd; clip-rule:evenodd"
viewBox="0 0 6816 6816"
 xmlns:xlink="http://www.w3.org/1999/xlink">
 <defs>
  <style type="text/css">
   <![CDATA[
    .fil0 {fill:none}
    .fil2 {fill:#4F1212}
    .fil1 {fill:#F9F9F9}
   ]]>
  </style>
 </defs>
 <g id="Layer_x0020_1">
  <metadata id="CorelCorpID_0Corel-Layer"/>
  <rect class="fil0" width="6816" height="6816"/>
  <path class="fil1" d="M4210 1497l244 94c41,16 86,39 126,58 70,33 139,67 209,101 71,34 142,69 213,104l667 -765 -24 437c-2,41 -7,84 -11,125 -7,78 -15,155 -22,233 -8,84 -16,168 -24,251 182,91 373,166 554,258l397 201 -1005 187 -93 1083 -540 -963c-22,5 -44,10 -63,14 -56,12 -113,25 -169,36 -57,11 -114,23 -171,35 -37,7 -75,16 -112,24 215,342 339,747 339,1181 0,1229 -996,2225 -2224,2225 -1229,0 -2225,-996 -2225,-2225 0,-1228 996,-2224 2225,-2224 447,0 864,132 1213,359l-373 -665c-26,6 -51,12 -75,17 -31,6 -61,12 -92,18 -34,7 -68,16 -104,20l-309 35 165 -264c32,-52 94,-114 137,-160 16,-18 35,-37 54,-57l-360 -619 408 165c59,24 122,57 180,86 23,11 46,22 68,33l468 -535 -36 453c-7,92 -17,183 -26,275 241,118 300,156 588,333l-197 36zm-108 20l-321 60 -64 751c180,119 343,262 482,427 19,-23 41,-46 57,-64 46,-52 92,-103 139,-154 60,-67 122,-133 182,-200l-475 -820z"/>
  <path class="fil2" d="M2501 2117c1145,0 2074,929 2074,2074 0,1146 -929,2075 -2074,2075 -1146,0 -2074,-929 -2074,-2075 0,-1145 928,-2074 2074,-2074zm799 -830c1,11 -216,230 -246,280 27,-3 62,-12 90,-18 31,-6 61,-13 93,-19 27,-5 169,-37 182,-35l189 336 33 -381 365 -68c-13,-8 -31,-15 -44,-21 -15,-7 -30,-14 -43,-21 -56,-27 -120,-54 -174,-80 -19,-10 -74,-33 -86,-42 1,-13 31,-311 36,-377l-244 280c-37,-18 -303,-149 -343,-165l192 331zm1459 1063c1,12 9,1 -21,33 -10,10 -19,21 -30,33 -57,65 -394,431 -409,456 50,-6 116,-23 169,-34 58,-12 114,-23 172,-35 51,-10 315,-69 341,-66l352 627 61 -710 680 -127c-201,-101 -445,-196 -646,-305 2,-25 65,-670 67,-704l-455 521c-69,-33 -591,-289 -640,-307l359 618z"/>
 </g>
</svg>
