<?xml version="1.0" encoding="UTF-8"?>
<!DOCTYPE svg PUBLIC "-//W3C//DTD SVG 1.1//EN" "http://www.w3.org/Graphics/SVG/1.1/DTD/svg11.dtd">
<!-- Creator: CorelDRAW X7 -->
<svg xmlns="http://www.w3.org/2000/svg" xml:space="preserve" width="300px" height="300px" version="1.1" style="shape-rendering:geometricPrecision; text-rendering:geometricPrecision; image-rendering:optimizeQuality; fill-rule:evenodd; clip-rule:evenodd"
viewBox="0 0 158 158"
 xmlns:xlink="http://www.w3.org/1999/xlink">
 <defs>
  <style type="text/css">
   <![CDATA[
    .fil0 {fill:none}
    .fil2 {fill:#938EAB}
    .fil3 {fill:#C2BFCF}
    .fil1 {fill:#F9F9F9}
   ]]>
  </style>
 </defs>
 <g id="Layer_x0020_1">
  <metadata id="CorelCorpID_0Corel-Layer"/>
  <polygon class="fil0" points="0,158 158,158 158,0 0,0 "/>
  <path class="fil1" d="M88 39c1,-1 1,-2 2,-3 12,-25 50,-18 51,14 16,3 19,33 -6,33l-65 0c-4,0 -7,-1 -9,-3 -3,-2 -4,-5 -5,-9 -1,-7 3,-12 8,-14 1,-6 4,-11 9,-14 3,-3 7,-4 12,-4 1,0 2,0 3,0z"/>
  <path class="fil2" d="M90 42c-5,0 -9,-2 -16,3 -4,3 -7,7 -7,14 -5,1 -9,5 -8,12 0,3 2,5 3,7 2,2 5,2 8,2l65 0c23,0 18,-27 3,-27 0,-32 -34,-38 -46,-15 -1,1 -1,3 -2,4z"/>
  <path class="fil1" d="M48 71c0,-1 1,-2 1,-3 17,-32 65,-23 66,18 21,4 24,42 -8,42l-83 0c-4,0 -8,-1 -12,-4 -3,-2 -5,-7 -5,-11 -1,-9 3,-16 10,-19 1,-7 5,-14 11,-18 5,-3 9,-5 15,-5 2,0 3,0 5,0z"/>
  <path class="fil3" d="M50 75c-7,0 -12,-2 -21,4 -4,4 -8,10 -9,18 -6,2 -11,7 -10,15 0,4 2,7 4,9 3,3 6,3 10,3l83 0c30,0 24,-35 5,-35 0,-41 -45,-48 -60,-19 -1,2 -1,4 -2,5z"/>
 </g>
</svg>
