<?xml version="1.0" encoding="UTF-8"?>
<!DOCTYPE svg PUBLIC "-//W3C//DTD SVG 1.1//EN" "http://www.w3.org/Graphics/SVG/1.1/DTD/svg11.dtd">
<!-- Creator: CorelDRAW X7 -->
<svg xmlns="http://www.w3.org/2000/svg" xml:space="preserve" width="300px" height="300px" version="1.1" style="shape-rendering:geometricPrecision; text-rendering:geometricPrecision; image-rendering:optimizeQuality; fill-rule:evenodd; clip-rule:evenodd"
viewBox="0 0 6121 6121"
 xmlns:xlink="http://www.w3.org/1999/xlink">
 <defs>
  <style type="text/css">
   <![CDATA[
    .fil0 {fill:none}
    .fil4 {fill:#3F3FD9}
    .fil2 {fill:#4F1212}
    .fil3 {fill:#C2BFCF}
    .fil1 {fill:#F9F9F9}
   ]]>
  </style>
 </defs>
 <g id="Layer_x0020_1">
  <metadata id="CorelCorpID_0Corel-Layer"/>
  <polygon class="fil0" points="6121,6121 0,6121 0,0 6121,0 "/>
  <path class="fil1" d="M2355 824c893,0 1617,724 1617,1617 0,894 -724,1618 -1617,1618 -893,0 -1617,-724 -1617,-1618 0,-893 724,-1617 1617,-1617z"/>
  <path class="fil2" d="M2355 909c846,0 1532,686 1532,1532 0,846 -686,1532 -1532,1532 -846,0 -1532,-686 -1532,-1532 0,-846 686,-1532 1532,-1532z"/>
  <path class="fil1" d="M2520 2640c16,-37 31,-76 48,-110 572,-1101 2224,-795 2273,606 716,139 822,1447 -285,1447l-2853 0c-155,0 -284,-16 -411,-122 -105,-88 -180,-246 -197,-391 -38,-313 113,-551 365,-642 31,-257 156,-475 357,-620 173,-125 326,-178 531,-176 58,1 115,6 172,8z"/>
  <path class="fil3" d="M2588 2770c-239,4 -412,-66 -706,146 -163,117 -303,319 -312,614 -218,46 -395,219 -358,523 14,121 79,243 152,305 94,79 189,95 339,95l2853 0c1030,0 810,-1196 170,-1198 -4,-1417 -1539,-1655 -2055,-660 -30,57 -52,126 -83,175z"/>
  <path class="fil1" d="M3773 5107c-71,-112 -87,-247 -38,-371 54,-137 316,-433 432,-529l96 -79c78,165 170,345 228,514 37,111 62,234 28,349 -90,306 -539,438 -746,116zm-985 164c-53,22 -110,30 -166,24 -121,-13 -229,-88 -294,-189 -72,-112 -87,-248 -38,-372 85,-216 341,-442 527,-607l78 162 0 1c52,115 110,231 150,351 38,111 63,233 29,348 -42,141 -157,227 -286,282zm915 -1230c-51,21 -105,29 -160,23 -115,-12 -219,-84 -281,-181 -69,-108 -84,-238 -37,-357 97,-244 329,-397 506,-579l76 159 1 1c84,188 230,454 168,664 -39,135 -149,217 -273,270z"/>
  <path class="fil4" d="M4195 5183c464,-197 146,-577 34,-901 -127,123 -363,384 -404,489 -98,249 157,503 370,412zm-1445 -1c403,-171 221,-489 57,-852l-24 -50c-154,173 -344,338 -404,489 -98,249 157,504 371,413zm915 -1230c381,-162 209,-462 54,-805l-11 -24c-149,139 -312,235 -393,439 -93,235 148,475 350,390z"/>
 </g>
</svg>
